<svg width="38" height="38" viewBox="0 0 38 38" fill="none" xmlns="http://www.w3.org/2000/svg">
<g clip-path="url(#clip0_197405_508)">
<path d="M28.5002 9.50033H25.3335C25.3335 6.00116 22.4993 3.16699 19.0002 3.16699C15.501 3.16699 12.6668 6.00116 12.6668 9.50033H9.50016C7.7585 9.50033 6.3335 10.9253 6.3335 12.667V31.667C6.3335 33.4087 7.7585 34.8337 9.50016 34.8337H28.5002C30.2418 34.8337 31.6668 33.4087 31.6668 31.667V12.667C31.6668 10.9253 30.2418 9.50033 28.5002 9.50033ZM19.0002 6.33366C20.7418 6.33366 22.1668 7.75866 22.1668 9.50033H15.8335C15.8335 7.75866 17.2585 6.33366 19.0002 6.33366ZM28.5002 31.667H9.50016V12.667H12.6668V15.8337C12.6668 16.7045 13.3793 17.417 14.2502 17.417C15.121 17.417 15.8335 16.7045 15.8335 15.8337V12.667H22.1668V15.8337C22.1668 16.7045 22.8793 17.417 23.7502 17.417C24.621 17.417 25.3335 16.7045 25.3335 15.8337V12.667H28.5002V31.667Z" fill="#002F52"/>
</g>
<defs>
<clipPath id="clip0_197405_508">
<rect width="38" height="38" fill="white"/>
</clipPath>
</defs>
</svg>
